PathFileType	4	(X/Y/Z)	C:/Users/opensim2020/Desktop/walking_exp_matlab/subject01_walking09_straight_01.trc	
DataRate	CameraRate	NumFrames	NumMarkers	Units	OrigDataRate	OrigDataStartFrame	OrigNumFrames	
100.00	100.00	5	43	mm	100.00	832	485	
Frame#	Time	LFHD			RFHD			LBHD			RBHD			C7			T10			CLAV			STRN			RBAK			LSHO			LUPA			LELB			LFRM			LWRA			LWRB			LFIN			RSHO			RUPA			RELB			RFRM			RWRA			RWRB			RFIN			LASI			RASI			LPSI			RPSI			LTHI			LKNE			LTIB			LANK			LHEE			LTOE			RTHI			RKNE			RTIB			RANK			RHEE			RTOE			*39			*40			*41			*42			
		X1	Y1	Z1	X2	Y2	Z2	X3	Y3	Z3	X4	Y4	Z4	X5	Y5	Z5	X6	Y6	Z6	X7	Y7	Z7	X8	Y8	Z8	X9	Y9	Z9	X10	Y10	Z10	X11	Y11	Z11	X12	Y12	Z12	X13	Y13	Z13	X14	Y14	Z14	X15	Y15	Z15	X16	Y16	Z16	X17	Y17	Z17	X18	Y18	Z18	X19	Y19	Z19	X20	Y20	Z20	X21	Y21	Z21	X22	Y22	Z22	X23	Y23	Z23	X24	Y24	Z24	X25	Y25	Z25	X26	Y26	Z26	X27	Y27	Z27	X28	Y28	Z28	X29	Y29	Z29	X30	Y30	Z30	X31	Y31	Z31	X32	Y32	Z32	X33	Y33	Z33	X34	Y34	Z34	X35	Y35	Z35	X36	Y36	Z36	X37	Y37	Z37	X38	Y38	Z38	X39	Y39	Z39	X40	Y40	Z40	X41	Y41	Z41	X42	Y42	Z42	X43	Y43	Z43	

61	0.600	-1096.56348	-1062.28442	1664.01074	-983.55505	-1053.51563	1677.50635	-1088.42542	-1158.25867	1583.48047	-968.35437	-1151.50488	1595.18359	-1038.29749	-1156.87085	1422.32080	-1017.47235	-1193.13867	1128.85095	-1034.08313	-1009.91107	1353.47913	-1032.11609	-970.25720	1197.41467	-951.46796	-1212.51746	1231.63806	-1195.88892	-1072.78918	1379.62195	-1272.02380	-1114.05420	1193.29138	-1264.16980	-1137.44226	1044.28674	-1285.03662	-1108.01819	933.27399	-1263.02087	-1039.46851	812.78107	-1288.19299	-1094.11475	811.86798	-1294.91077	-1052.93018	737.97528	-883.92853	-1074.76282	1386.30322	-774.45483	-1114.38159	1186.26843	-769.52051	-1101.24902	1061.00806	-746.42841	-1053.68982	948.30322	-779.53888	-960.47949	844.76434	-735.82758	-999.10217	839.12201	-741.64105	-950.34296	769.23578	-1112.82739	-1011.77417	922.91125	-895.89227	-1029.18884	916.45746	-1077.00256	-1203.35303	937.04303	-932.75519	-1211.47705	939.28070	-1180.04700	-983.39819	605.88361	-1162.38147	-967.65613	473.13351	-1177.08630	-983.15942	283.89856	-1128.06091	-962.02649	64.37016	-1074.31885	-1002.32837	33.39404	-1129.22925	-813.59393	38.74098	-853.55481	-1141.09534	591.21704	-880.37720	-1164.68311	432.95151	-875.30725	-1265.60583	287.70572	-924.78375	-1349.08508	97.02242	-976.24554	-1404.91650	70.63793	-928.30243	-1221.40308	28.44921	-1007.21808	-1075.95056	1704.71851	-3102.02319	1973.14490	1023.45673	-3140.73462	2012.49976	1022.00873			 
62	0.610	-1098.81531	-1056.73499	1665.03662	-985.89240	-1048.26343	1678.48914	-1090.94287	-1152.79028	1584.67346	-970.88171	-1146.28369	1596.33179	-1040.79712	-1151.61877	1423.23071	-1019.30640	-1186.86560	1129.56750	-1036.62927	-1004.55719	1354.63953	-1034.34875	-964.21661	1198.69226	-953.55103	-1206.65479	1232.41431	-1198.33093	-1067.32251	1380.59253	-1274.17053	-1107.90540	1194.03992	-1266.12537	-1130.93115	1045.09143	-1286.86511	-1101.27185	934.22449	-1265.16687	-1032.23450	813.95990	-1289.90442	-1087.04468	812.80505	-1296.54700	-1045.36743	739.01654	-886.45715	-1069.15002	1387.77869	-776.73322	-1109.39526	1187.75977	-771.85699	-1096.49634	1062.51514	-748.41937	-1050.03003	949.72180	-781.67090	-957.29608	845.30042	-737.45441	-995.66351	840.12079	-743.13971	-947.28076	769.84753	-1114.75623	-1005.37592	923.92554	-897.90216	-1022.55151	917.62115	-1078.40967	-1196.78625	938.11938	-934.19299	-1204.70471	940.79950	-1181.18774	-977.96387	606.05084	-1163.21436	-962.88031	473.28983	-1177.61719	-979.81732	284.02603	-1128.05554	-961.35522	64.43569	-1074.38074	-1002.30249	33.55740	-1128.44287	-812.99054	37.90213	-854.72107	-1134.35999	592.28351	-880.56665	-1157.60400	433.99417	-875.54370	-1261.06396	290.09988	-924.75891	-1346.61572	100.31207	-976.11078	-1402.62292	74.29645	-928.09357	-1220.94714	28.43819	-1010.04218	-1070.83289	1705.27161	-3101.91211	1973.15027	1023.50433	-3140.70459	2012.57275	1022.14069			 
63	0.620	-1101.18469	-1051.22168	1666.08313	-988.29224	-1042.84265	1679.49060	-1093.45593	-1147.37708	1585.86340	-973.38031	-1141.01306	1597.49084	-1043.29407	-1146.12329	1423.77246	-1021.22589	-1180.68213	1130.33911	-1039.10938	-999.38721	1355.84644	-1036.50537	-958.33014	1199.96948	-955.62421	-1200.75549	1233.21289	-1200.72180	-1061.89563	1381.58191	-1276.74561	-1102.10266	1195.01453	-1267.98682	-1124.24438	1045.93909	-1288.80835	-1094.60059	935.27393	-1267.50537	-1025.07251	815.21924	-1291.69019	-1080.31506	813.67596	-1299.05847	-1038.08020	740.27228	-889.03278	-1064.05945	1389.11450	-778.91705	-1104.42798	1189.33032	-774.03784	-1091.86902	1064.14038	-750.34583	-1045.43384	950.90167	-783.41766	-953.81104	845.96631	-739.12592	-992.22205	840.99213	-744.69348	-944.42175	770.44934	-1116.91528	-998.81738	924.93494	-900.00842	-1016.01074	918.87921	-1080.06030	-1190.29321	939.16669	-935.83258	-1198.01660	942.39459	-1182.28284	-972.85559	606.18469	-1163.97021	-958.50464	473.30161	-1178.00000	-976.53735	284.07394	-1127.96716	-960.80396	64.49313	-1074.56445	-1002.10876	33.63611	-1127.80920	-812.46014	37.12571	-855.74622	-1127.12390	593.08795	-880.95325	-1150.39795	434.72342	-875.61902	-1256.36548	292.52301	-924.41254	-1344.85449	103.79666	-975.99915	-1400.75940	79.38697	-928.08453	-1220.51660	28.54728	-1011.97723	-1065.02991	1706.91650	-3101.90527	1973.08362	1023.56976	-3140.64038	2012.50415	1022.03601			 
64	0.630	-1103.38904	-1045.67529	1667.00671	-990.46381	-1037.51746	1680.59058	-1095.91260	-1142.00623	1587.01172	-975.83112	-1135.80981	1598.59534	-1045.73779	-1140.68591	1424.52063	-1023.28174	-1174.54736	1131.06824	-1041.54529	-993.99713	1357.05334	-1038.71082	-952.48499	1201.26563	-957.61938	-1194.92944	1234.01294	-1203.12158	-1056.58887	1382.66455	-1278.76367	-1096.05347	1195.78320	-1269.93225	-1117.59167	1046.94299	-1290.71436	-1087.80908	936.16211	-1269.99292	-1018.00128	816.44275	-1293.27393	-1073.54639	814.47607	-1301.10083	-1030.94641	741.17206	-891.31091	-1058.89978	1390.15027	-780.93451	-1099.49573	1190.95520	-776.35071	-1087.30042	1065.62244	-752.27997	-1041.50220	952.22955	-784.81036	-950.27307	846.61346	-740.66986	-988.90533	842.20282	-746.30542	-941.38080	771.02808	-1119.13208	-992.32111	925.84058	-902.21014	-1009.51520	920.09857	-1081.85632	-1183.80408	940.14893	-937.72662	-1191.39673	943.89429	-1183.19910	-968.27716	606.07733	-1164.63940	-954.38904	473.12875	-1178.17773	-973.47272	284.02271	-1127.76672	-960.29437	64.39851	-1074.48975	-1002.02997	33.59017	-1127.06006	-811.95386	36.48547	-856.48865	-1119.69446	593.96497	-880.96240	-1142.53210	435.31326	-875.89288	-1250.55725	294.60056	-924.20721	-1341.83838	107.08956	-975.92920	-1398.47925	84.05629	-927.97272	-1220.12708	28.49533	-1014.25513	-1059.56897	1708.00159	-3101.95972	1973.13806	1023.62592	-3140.66602	2012.50012	1022.02106			 
65	0.640	-1105.60205	-1040.21118	1668.08850	-992.71185	-1032.16028	1681.47632	-1098.31006	-1136.60510	1588.14758	-978.21136	-1130.54224	1599.62354	-1048.19543	-1135.62573	1425.29272	-1025.46643	-1168.46863	1131.78479	-1043.89612	-988.24628	1358.20020	-1040.96375	-946.65094	1202.51929	-959.63300	-1189.12415	1234.84741	-1205.53210	-1051.27051	1383.82397	-1280.90002	-1090.10425	1196.67822	-1271.83264	-1110.73669	1047.77539	-1292.66809	-1081.10144	937.27594	-1272.63257	-1010.95990	817.65546	-1294.99683	-1066.80078	815.36816	-1303.33752	-1023.85455	742.36475	-893.98047	-1053.46082	1391.25488	-782.87402	-1094.47363	1192.60486	-778.56775	-1082.86328	1067.10718	-754.16705	-1037.58191	953.50287	-786.66010	-946.92926	847.20819	-742.41754	-985.59247	843.14227	-747.96277	-938.58826	771.78784	-1121.24744	-985.94604	926.57135	-904.45630	-1003.09961	921.32239	-1083.90173	-1177.19739	941.05835	-939.82153	-1184.57617	945.17065	-1184.24915	-963.91248	605.98578	-1165.35291	-950.40631	472.98477	-1178.45471	-970.73120	283.94528	-1127.67627	-959.70898	64.36770	-1074.59924	-1002.12927	33.56734	-1126.11584	-811.33484	35.72287	-857.13965	-1112.02368	594.75220	-880.99084	-1134.31323	435.81540	-875.78650	-1244.95190	297.08685	-923.85126	-1339.67419	110.98364	-975.76746	-1395.72742	88.57512	-927.99792	-1219.91711	28.65765	-1016.59119	-1054.20532	1708.90881	-3101.89478	1973.16699	1023.32343	-3140.72534	2012.59766	1022.08636			 
